<?xml version="1.0" encoding="UTF-8" standalone="no"?>
<svg
   xmlns:dc="http://purl.org/dc/elements/1.1/"
   xmlns:cc="http://creativecommons.org/ns#"
   xmlns:rdf="http://www.w3.org/1999/02/22-rdf-syntax-ns#"
   xmlns:svg="http://www.w3.org/2000/svg"
   xmlns="http://www.w3.org/2000/svg"
   xmlns:xlink="http://www.w3.org/1999/xlink"
   xmlns:sodipodi="http://sodipodi.sourceforge.net/DTD/sodipodi-0.dtd"
   xmlns:inkscape="http://www.inkscape.org/namespaces/inkscape"
   width="138.604mm"
   height="138.59877mm"
   viewBox="0 0 138.604 138.59877"
   version="1.1"
   id="svg8"
   inkscape:version="1.0.1 (3bc2e813f5, 2020-09-07)"
   sodipodi:docname="presence.svg">
  <defs
     id="defs2">
    <linearGradient
       inkscape:collect="always"
       id="linearGradient918">
      <stop
         style="stop-color:#245b5c;stop-opacity:1;"
         offset="0"
         id="stop914" />
      <stop
         style="stop-color:#4a9697;stop-opacity:1"
         offset="1"
         id="stop916" />
    </linearGradient>
    <linearGradient
       inkscape:collect="always"
       xlink:href="#linearGradient918"
       id="linearGradient920"
       x1="152.32274"
       y1="168.1969"
       x2="155.97896"
       y2="171.90359"
       gradientUnits="userSpaceOnUse"
       gradientTransform="translate(-0.00326032,-0.02690032)" />
  </defs>
  <sodipodi:namedview
     id="base"
     pagecolor="#ffffff"
     bordercolor="#666666"
     borderopacity="1.0"
     inkscape:pageopacity="0.0"
     inkscape:pageshadow="2"
     inkscape:zoom="0.35355339"
     inkscape:cx="-353.68463"
     inkscape:cy="485.71"
     inkscape:document-units="mm"
     inkscape:current-layer="layer1"
     inkscape:document-rotation="0"
     showgrid="false"
     inkscape:snap-others="true"
     inkscape:object-nodes="true"
     showguides="true"
     inkscape:guide-bbox="true"
     inkscape:snap-to-guides="true"
     inkscape:window-width="1920"
     inkscape:window-height="1001"
     inkscape:window-x="-9"
     inkscape:window-y="-9"
     inkscape:window-maximized="1"
     fit-margin-top="0"
     fit-margin-left="0"
     fit-margin-right="0"
     fit-margin-bottom="0" />
  <metadata
     id="metadata5">
    <rdf:RDF>
      <cc:Work
         rdf:about="">
        <dc:format>image/svg+xml</dc:format>
        <dc:type
           rdf:resource="http://purl.org/dc/dcmitype/StillImage" />
        <dc:title></dc:title>
      </cc:Work>
    </rdf:RDF>
  </metadata>
  <g
     inkscape:label="Capa 1"
     inkscape:groupmode="layer"
     id="layer1"
     transform="translate(-36.985994,-62.552044)">
    <g
       id="g1100"
       inkscape:export-xdpi="96"
       inkscape:export-ydpi="96"
       transform="matrix(36.282959,0,0,36.282959,-5487.9185,-6036.8873)">
      <path
         id="rect833"
         style="opacity:1;fill:url(#linearGradient920);fill-opacity:1;fill-rule:evenodd;stroke-width:0.264583"
         d="m 153.19048,168.10755 h 1.98438 c 0.50844,0 0.91777,0.40933 0.91777,0.91778 v 1.98437 c 0,0.50845 -0.40933,0.91777 -0.91777,0.91777 h -1.98438 c -0.50844,0 -0.91777,-0.40932 -0.91777,-0.91777 v -1.98437 c 0,-0.50845 0.40933,-0.91778 0.91777,-0.91778 z" />
      <path
         id="path1074"
         style="opacity:0.168168;fill:#000000;stroke:none;stroke-width:0.999999px;stroke-linecap:butt;stroke-linejoin:miter;stroke-opacity:1"
         d="m 588.42969,642.58789 -4.12696,2.4375 -3.44726,0.0879 -2.85938,-1.16211 5.85352,5.85352 h 2.63867 c 1.92166,0 3.46875,-1.54705 3.46875,-3.46875 v -2.22071 z"
         transform="scale(0.26458333)" />
      <g
         id="g1068"
         transform="matrix(0.00589293,0,0,0.00589293,152.67408,168.50892)"
         style="fill:#ffffff;fill-opacity:1">
        <g
           id="g1011"
           style="fill:#ffffff;fill-opacity:1">
	<path
   d="M 506.309,238.459 C 445.412,154.281 354.177,106 256,106 157.823,106 66.588,154.281 5.691,238.459 c -7.588,10.474 -7.588,24.609 0,35.083 C 66.588,357.719 157.824,406 256,406 c 98.176,0 189.412,-48.281 250.309,-132.458 7.588,-10.474 7.588,-24.61 0,-35.083 z M 256,361 c -58.221,0 -105.412,-47 -105.412,-105 0,-58 47.191,-105 105.412,-105 58.213,0 105.412,46.999 105.412,105 0,58.001 -47.199,105 -105.412,105 z"
   id="path1007"
   style="fill:#ffffff;fill-opacity:1" />

	<path
   d="m 256,181 v 75 h -75.294 c 0,41.426 33.706,75 75.294,75 41.581,0 75.294,-33.574 75.294,-75 0,-41.426 -33.713,-75 -75.294,-75 z"
   id="path1009"
   style="fill:#ffffff;fill-opacity:1" />

</g>
        <g
           id="g1013"
           style="fill:#ffffff;fill-opacity:1">
</g>
        <g
           id="g1015"
           style="fill:#ffffff;fill-opacity:1">
</g>
        <g
           id="g1017"
           style="fill:#ffffff;fill-opacity:1">
</g>
        <g
           id="g1019"
           style="fill:#ffffff;fill-opacity:1">
</g>
        <g
           id="g1021"
           style="fill:#ffffff;fill-opacity:1">
</g>
        <g
           id="g1023"
           style="fill:#ffffff;fill-opacity:1">
</g>
        <g
           id="g1025"
           style="fill:#ffffff;fill-opacity:1">
</g>
        <g
           id="g1027"
           style="fill:#ffffff;fill-opacity:1">
</g>
        <g
           id="g1029"
           style="fill:#ffffff;fill-opacity:1">
</g>
        <g
           id="g1031"
           style="fill:#ffffff;fill-opacity:1">
</g>
        <g
           id="g1033"
           style="fill:#ffffff;fill-opacity:1">
</g>
        <g
           id="g1035"
           style="fill:#ffffff;fill-opacity:1">
</g>
        <g
           id="g1037"
           style="fill:#ffffff;fill-opacity:1">
</g>
        <g
           id="g1039"
           style="fill:#ffffff;fill-opacity:1">
</g>
        <g
           id="g1041"
           style="fill:#ffffff;fill-opacity:1">
</g>
      </g>
    </g>
  </g>
</svg>
